<?xml version="1.0" standalone="no"?>
<!DOCTYPE svg PUBLIC "-//W3C//DTD SVG 20010904//EN"
 "http://www.w3.org/TR/2001/REC-SVG-20010904/DTD/svg10.dtd">
<svg version="1.0" xmlns="http://www.w3.org/2000/svg"
 width="512.000000pt" height="512.000000pt" viewBox="0 0 512.000000 512.000000"
 preserveAspectRatio="xMidYMid meet">
<metadata>
Created by potrace 1.14, written by Peter Selinger 2001-2017
</metadata>
<g transform="translate(0.000000,512.000000) scale(0.100000,-0.100000)"
fill="#000000" stroke="none">
<path d="M413 5076 c-175 -43 -321 -187 -368 -367 -22 -81 -22 -4217 0 -4298
47 -178 188 -319 366 -366 81 -22 4217 -22 4298 0 171 45 287 155 362 345 12
29 14 370 14 2165 0 1555 -4 2140 -12 2168 -36 123 -148 259 -254 311 -123 59
22 56 -2259 55 -1642 -1 -2106 -3 -2147 -13z"/>
</g>
</svg>
